<?xml version="1.0" encoding="UTF-8"?>
<svg version="1.1" xmlns="http://www.w3.org/2000/svg" width="100" height="100">
<path d="M0 0 C11.5749467 12.59338532 14.16043681 26.80927426 13.63183594 43.29052734 C13.36682943 47.73184008 12.33901605 51.47234507 10.5 55.5 C10.10941406 56.386875 9.71882813 57.27375 9.31640625 58.1875 C2.64892981 71.78688537 -7.90376915 78.90670632 -21.5 84.5 C-31.64336846 87.4475048 -45.9393618 86.86536085 -55.5 82.5 C-56.386875 82.10941406 -57.27375 81.71882813 -58.1875 81.31640625 C-71.40380811 74.83674408 -79.66521633 64.17692158 -84.5 50.5 C-88.41745829 36.87036825 -86.38481754 23.58093588 -79.93017578 11.19750977 C-73.21631638 -0.78272559 -63.2354739 -7.88187975 -50.5 -12.5 C-32.35357857 -17.56138025 -13.82392363 -12.5325617 0 0 Z " fill="#494949" transform="translate(86.5,14.5)"/>
<path d="M0 0 C11.5749467 12.59338532 14.16043681 26.80927426 13.63183594 43.29052734 C13.36682943 47.73184008 12.33901605 51.47234507 10.5 55.5 C10.10941406 56.386875 9.71882813 57.27375 9.31640625 58.1875 C2.64892981 71.78688537 -7.90376915 78.90670632 -21.5 84.5 C-31.64336846 87.4475048 -45.9393618 86.86536085 -55.5 82.5 C-56.386875 82.10941406 -57.27375 81.71882813 -58.1875 81.31640625 C-71.40380811 74.83674408 -79.66521633 64.17692158 -84.5 50.5 C-88.41745829 36.87036825 -86.38481754 23.58093588 -79.93017578 11.19750977 C-73.21631638 -0.78272559 -63.2354739 -7.88187975 -50.5 -12.5 C-32.35357857 -17.56138025 -13.82392363 -12.5325617 0 0 Z M-69.8125 15.125 C-74.40567599 20.64645565 -73.75339139 25.62386304 -73.79516602 32.65649414 C-73.81228668 34.66250573 -73.85617119 36.66823089 -73.90039062 38.67382812 C-73.95615962 47.17216494 -73.45468206 51.82717916 -67.9296875 58.35546875 C-58.86884263 66.11865493 -48.73636049 67.67944078 -37.1875 67.6875 C-36.27548828 67.69974609 -35.36347656 67.71199219 -34.42382812 67.72460938 C-22.9872223 67.74920423 -12.81861644 64.70655979 -4.0078125 57.2578125 C1.25910602 51.11762252 1.15352605 44.4897328 1.22070312 36.77929688 C1.24977323 34.76570765 1.34284468 32.76142558 1.4375 30.75 C1.52208222 23.67328789 1.05895994 19.20346456 -3.6640625 13.73828125 C-7.04368129 10.52604294 -10.19038402 8.02647003 -14.625 6.4375 C-15.57632813 6.07527344 -16.52765625 5.71304687 -17.5078125 5.33984375 C-34.6139054 0.53852525 -57.40661341 1.02607477 -69.8125 15.125 Z " fill="#EFEEEE" transform="translate(86.5,14.5)"/>
<path d="M0 0 C-3.29115089 2.19410059 -5.86175768 2.80700622 -9.6875 3.75 C-16.30536381 5.58411324 -22.50047779 7.83412965 -26.18359375 13.97265625 C-27.44071525 17.09440773 -27.29182983 19.67313999 -27 23 C-24.00885827 29.76942603 -17.65275374 33.37420333 -11 36 C-5.30266308 37.68344025 -0.17770467 38.35613325 5.75 38.3125 C6.5342334 38.30831055 7.3184668 38.30412109 8.12646484 38.29980469 C18.03627012 38.10880167 28.74715918 36.23675419 36.5625 29.69140625 C40.38925858 25.67983263 41 22.33210575 41 17 C39.7122022 12.04693153 37.19440027 10.26537228 33 7.6875 C30.31615651 6.16585659 27.9318431 4.97728103 25 4 C25 3.34 25 2.68 25 2 C32.53320817 2.7174484 37.67978695 6.76257619 42.50073242 12.36254883 C45.28324383 17.25743089 44.91962189 22.52947278 44.74780273 28.03637695 C44.68747964 30.06318414 44.68624334 32.08374853 44.69335938 34.11132812 C44.57200583 42.51819954 43.8903452 47.40319908 38.4296875 53.85546875 C26.48803379 64.08688562 10.94493765 64.05233924 -4 63 C-13.59346642 61.63804666 -20.99760185 57.41290053 -27.4375 50.3125 C-31.05008928 44.96586787 -30.25806959 38.93852059 -30.29516602 32.71313477 C-30.31235018 30.70500808 -30.35625424 28.69716826 -30.40039062 26.68945312 C-30.40876953 25.41392578 -30.41714844 24.13839844 -30.42578125 22.82421875 C-30.44036377 21.65979248 -30.45494629 20.49536621 -30.4699707 19.2956543 C-29.60404037 13.22334598 -25.652694 9.13039257 -21.046875 5.390625 C-14.32612805 0.82462134 -8.00929312 -0.51672859 0 0 Z " fill="#242424" transform="translate(43,19)"/>
<path d="M0 0 C0.9075 0.886875 1.815 1.77375 2.75 2.6875 C8.80829756 7.87507058 16.38700584 10.57749799 24.125 12.1875 C28 13 28 13 30 15 C31.34262065 14.70630173 32.67696283 14.3721042 34 14 C34.66 14.33 35.32 14.66 36 15 C35.835 15.78375 35.67 16.5675 35.5 17.375 C34.9376293 19.88208039 34.9376293 19.88208039 35 22 C35.66 22 36.32 22 37 22 C37 22.99 37 23.98 37 25 C36.01 25.66 35.02 26.32 34 27 C35.32 27.33 36.64 27.66 38 28 C38.495 30.475 38.495 30.475 39 33 C36.03 33 33.06 33 30 33 C30 33.66 30 34.32 30 35 C19.04332109 34.58339624 10.88821096 32.20454698 2.59375 24.87890625 C-1.69330598 19.82480349 -1.11762113 14.92900968 -0.625 8.6875 C-0.56828125 7.85154297 -0.5115625 7.01558594 -0.453125 6.15429688 C-0.31240504 4.10213072 -0.1576007 2.05093882 0 0 Z " fill="#2F2F2F" transform="translate(15,47)"/>
<path d="M0 0 C1.670625 0.86625 1.670625 0.86625 3.375 1.75 C8.13263066 4.13734155 13.03601597 6.08764549 18 8 C17.01 8.495 17.01 8.495 16 9 C16.33 9.66 16.66 10.32 17 11 C17.99 11 18.98 11 20 11 C20.33 11.99 20.66 12.98 21 14 C19.02 14.99 19.02 14.99 17 16 C17.226875 16.556875 17.45375 17.11375 17.6875 17.6875 C18.12449065 20.92123084 16.81198627 22.39073978 15 25 C7.56585502 24.11498274 3.047913 21.49331709 -2 16 C-0.68 14.02 0.64 12.04 2 10 C-1.05270463 9.84188612 -1.05270463 9.84188612 -4 11 C-3.6875 8.625 -3.6875 8.625 -3 6 C-2.01 5.34 -1.02 4.68 0 4 C0 2.68 0 1.36 0 0 Z M15 13 C16 15 16 15 16 15 Z " fill="#393939" transform="translate(20,52)"/>
<path d="M0 0 C5.06584081 0.48246103 8.02147886 1.83342195 12 5 C12.59893066 5.47622803 13.19786133 5.95245605 13.81494141 6.44311523 C18.39874416 10.75760294 19.49246984 14.05407187 19.68359375 20.34375 C19.66217606 23.06637737 19.5559913 25.78012966 19.4375 28.5 C19.40232921 29.90877633 19.37040034 31.31763753 19.34179688 32.7265625 C19.25965078 36.15322833 19.14480903 39.57550517 19 43 C18.01 43.495 18.01 43.495 17 44 C15.93276039 40.53777385 15.89826514 37.35960734 15.9375 33.75 C15.94652344 32.67234375 15.95554687 31.5946875 15.96484375 30.484375 C15.97644531 29.66453125 15.98804687 28.8446875 16 28 C14.02 28.99 14.02 28.99 12 30 C12 30.66 12 31.32 12 32 C6.26239061 35.69757049 0.61776809 37.42035192 -6 39 C-6 38.01 -6 37.02 -6 36 C-4.98679688 35.64808594 -3.97359375 35.29617187 -2.9296875 34.93359375 C7.84125808 31.32305562 7.84125808 31.32305562 15 23 C16.29552866 19.09826163 16.2296621 15.88331579 15.1875 11.875 C11.42903902 6.93530842 5.84686704 3.94895568 0 2 C0 1.34 0 0.68 0 0 Z " fill="#191A19" transform="translate(68,21)"/>
<path d="M0 0 C4.8984375 3.59375 4.8984375 3.59375 5.8125 7.25 C5.874375 8.1575 5.93625 9.065 6 10 C5.01 10.33 4.02 10.66 3 11 C1.78130071 13.50447516 1.78130071 13.50447516 1 16 C1.66 16 2.32 16 3 16 C3.33 15.34 3.66 14.68 4 14 C4.99 13.67 5.98 13.34 7 13 C7.33 13.99 7.66 14.98 8 16 C6.0625 18.6875 6.0625 18.6875 4 21 C8.0409188 25.69267989 12.26908345 27.7650674 18 30 C18 30.66 18 31.32 18 32 C11.54422804 31.7310095 7.6970767 29.37748179 3 25 C2.25621094 24.32066406 1.51242188 23.64132813 0.74609375 22.94140625 C-1.87089728 18.53291801 -1.19394952 14.67312363 -0.75 9.6875 C-0.68425781 8.75615234 -0.61851563 7.82480469 -0.55078125 6.86523438 C-0.38633059 4.57467158 -0.20220182 2.28748761 0 0 Z " fill="#323232" transform="translate(15,47)"/>
<path d="M0 0 C1.74095991 2.26324789 3.23795963 4.4301578 4.625 6.9375 C10.73024554 14.81005346 20.76716793 16.64910819 30 19 C30 19.33 30 19.66 30 20 C19.67169641 20.57379464 11.75753427 17.87966088 4 11 C3.44570313 10.52949219 2.89140625 10.05898438 2.3203125 9.57421875 C-0.0325732 6.76885504 0.29178212 3.55974183 0 0 Z " fill="#8E8E8E" transform="translate(15,37)"/>
<path d="M0 0 C-7.5500785 3.47303611 -14.12212132 4.14805616 -22.375 4.0625 C-23.20644531 4.05798828 -24.03789063 4.05347656 -24.89453125 4.04882812 C-26.92971897 4.03713164 -28.96486923 4.01919935 -31 4 C-29.36461573 2.02797676 -28.45476168 1.09031705 -25.90283203 0.58349609 C-24.71729736 0.55376709 -24.71729736 0.55376709 -23.5078125 0.5234375 C-22.20263672 0.47703125 -22.20263672 0.47703125 -20.87109375 0.4296875 C-19.96488281 0.41164062 -19.05867188 0.39359375 -18.125 0.375 C-16.33583828 0.32366107 -14.54676631 0.26907189 -12.7578125 0.2109375 C-11.50532715 0.17178223 -11.50532715 0.17178223 -10.22753906 0.13183594 C-1.20625465 -0.40208488 -1.20625465 -0.40208488 0 0 Z " fill="#5E5D5D" transform="translate(71,54)"/>
<path d="M0 0 C7.82104828 0.74486174 12.76465412 5.02505099 17.7109375 10.83203125 C19.19180839 13.32258684 19.35973012 14.58306595 19.0625 17.4375 C18.5365625 19.2009375 18.5365625 19.2009375 18 21 C17.34 21.33 16.68 21.66 16 22 C16.0928125 20.453125 16.0928125 20.453125 16.1875 18.875 C15.97381932 14.45893264 15.59160476 12.58251246 13 9 C8.9307593 6.06795451 4.76541138 3.58847046 0 2 C0 1.34 0 0.68 0 0 Z " fill="#212121" transform="translate(68,21)"/>
<path d="M0 0 C2.73059074 1.1124629 4.16022013 2.17395328 6.1875 4.375 C9.75355762 7.70332045 13.49965897 9.24496505 18 11 C18 11.66 18 12.32 18 13 C11.54989753 12.73124573 7.70327724 10.36586822 3 6 C0 2.41216216 0 2.41216216 0 0 Z " fill="#1F1F1E" transform="translate(15,66)"/>
<path d="M0 0 C0.33 0 0.66 0 1 0 C1 8.58 1 17.16 1 26 C0.34 26.33 -0.32 26.66 -1 27 C-2.22104128 22.65845221 -2.18389993 18.54458139 -2.1875 14.0625 C-2.19974609 13.26392578 -2.21199219 12.46535156 -2.22460938 11.64257812 C-2.23539269 7.30409295 -2.02015379 3.9524748 0 0 Z " fill="#131313" transform="translate(86,38)"/>
<path d="M0 0 C8.25 0.33 16.5 0.66 25 1 C22.18739 3.81261 20.10963633 3.28953797 16.265625 3.32226562 C15.39421875 3.31904297 14.5228125 3.31582031 13.625 3.3125 C12.76132812 3.32861328 11.89765625 3.34472656 11.0078125 3.36132812 C9.75484375 3.36229492 9.75484375 3.36229492 8.4765625 3.36328125 C7.71424316 3.36626221 6.95192383 3.36924316 6.16650391 3.37231445 C4 3 4 3 0 0 Z " fill="#191919" transform="translate(35,57)"/>
<path d="M0 0 C-4.20505273 2.80336848 -8.69682009 3.62857172 -13.5546875 4.90234375 C-16.76156513 5.92403605 -19.21358831 7.14062642 -22 9 C-21.84375 7.171875 -21.84375 7.171875 -21 5 C-14.32618307 0.88303501 -7.7305058 -0.64420882 0 0 Z " fill="#2B2B2A" transform="translate(43,19)"/>
<path d="M0 0 C2.35424675 -0.02726927 4.70816962 -0.04696719 7.0625 -0.0625 C8.37347656 -0.07410156 9.68445313 -0.08570312 11.03515625 -0.09765625 C14.8163519 -0.00452335 18.27920707 0.38551274 22 1 C22.33 1.99 22.66 2.98 23 4 C19.72783887 3.7221455 16.4576674 3.42534437 13.1875 3.125 C11.7943457 3.00705078 11.7943457 3.00705078 10.37304688 2.88671875 C9.48037109 2.80292969 8.58769531 2.71914063 7.66796875 2.6328125 C6.84578857 2.55949707 6.0236084 2.48618164 5.17651367 2.41064453 C3 2 3 2 0 0 Z " fill="#202020" transform="translate(44,18)"/>
<path d="M0 0 C2.97 0.99 5.94 1.98 9 3 C9 3.66 9 4.32 9 5 C2.25 4.25 2.25 4.25 0 2 C0 1.34 0 0.68 0 0 Z " fill="#292929" transform="translate(24,74)"/>
<path d="M0 0 C0 0.66 0 1.32 0 2 C-3.63 2 -7.26 2 -11 2 C-11 1.34 -11 0.68 -11 0 C-7.18243176 -1.37432457 -3.92744671 -0.67975039 0 0 Z " fill="#161616" transform="translate(56,80)"/>
<path d="M0 0 C0.66 0.99 1.32 1.98 2 3 C0.02 4.98 -1.96 6.96 -4 9 C-4.66 8.67 -5.32 8.34 -6 8 C-2.25 2.25 -2.25 2.25 0 0 Z " fill="#3E3E3E" transform="translate(33,66)"/>
<path d="M0 0 C0.33 0.99 0.66 1.98 1 3 C-0.9375 5.6875 -0.9375 5.6875 -3 8 C-4.32 7.67 -5.64 7.34 -7 7 C-5.47005208 5.76302083 -3.94010417 4.52604167 -2.41015625 3.2890625 C-0.86733563 2.0333609 -0.86733563 2.0333609 0 0 Z " fill="#DDDDDC" transform="translate(84,68)"/>
<path d="M0 0 C0.33 0.66 0.66 1.32 1 2 C-0.65 3.98 -2.3 5.96 -4 8 C-4.33 7.01 -4.66 6.02 -5 5 C-4.01 4.67 -3.02 4.34 -2 4 C-2 3.01 -2 2.02 -2 1 C-1.34 0.67 -0.68 0.34 0 0 Z " fill="#171717" transform="translate(84,66)"/>
<path d="M0 0 C2.31 0.66 4.62 1.32 7 2 C6.67 2.99 6.34 3.98 6 5 C3.69 4.34 1.38 3.68 -1 3 C-0.67 2.01 -0.34 1.02 0 0 Z " fill="#838383" transform="translate(28,51)"/>
</svg>
